<svg xmlns="http://www.w3.org/2000/svg" viewBox="0 0 16 16" shape-rendering="crispEdges">
  <rect width="16" height="16" fill="#3be2f0"/>
  <rect x="0" y="12" width="16" height="4" fill="#5cc94f"/>
  <rect x="1" y="11" width="2" height="1" fill="#5cc94f"/>
  <rect x="5" y="11" width="2" height="1" fill="#5cc94f"/>
  <rect x="9" y="11" width="2" height="1" fill="#5cc94f"/>
  <rect x="13" y="11" width="2" height="1" fill="#5cc94f"/>
  <rect x="10" y="1" width="4" height="2" fill="#ffffff"/>
  <rect x="9" y="2" width="6" height="1" fill="#ffffff"/>
  <rect x="6" y="3" width="4" height="1" fill="#16161c"/>
  <rect x="6" y="4" width="4" height="2" fill="#f7e08a"/>
  <rect x="7" y="4" width="1" height="1" fill="#16161c"/>
  <rect x="9" y="4" width="1" height="1" fill="#16161c"/>
  <rect x="5" y="6" width="1" height="2" fill="#35a3e0"/>
  <rect x="10" y="6" width="1" height="2" fill="#35a3e0"/>
  <rect x="6" y="6" width="4" height="3" fill="#2456a8"/>
  <rect x="6" y="7" width="4" height="1" fill="#35a3e0"/>
  <rect x="6" y="9" width="4" height="1" fill="#16161c"/>
  <rect x="6" y="10" width="1" height="2" fill="#16161c"/>
  <rect x="9" y="10" width="1" height="2" fill="#16161c"/>
</svg>
